<?xml version="1.0" standalone="no"?>
<!DOCTYPE svg PUBLIC "-//W3C//DTD SVG 20010904//EN"
 "http://www.w3.org/TR/2001/REC-SVG-20010904/DTD/svg10.dtd">
<svg version="1.0" xmlns="http://www.w3.org/2000/svg"
 width="200.000000pt" height="200.000000pt" viewBox="0 0 200.000000 200.000000"
 preserveAspectRatio="xMidYMid meet">

<g transform="translate(0.000000,200.000000) scale(0.100000,-0.100000)"
fill="#000000" stroke="none">
<path d="M775 1335 c-78 -17 -141 -45 -213 -94 -66 -44 -86 -66 -77 -80 3 -6
29 8 59 33 103 84 226 126 366 126 143 0 279 -48 373 -130 32 -28 48 -37 53
-28 10 16 -59 76 -135 116 -122 66 -287 88 -426 57z"/>
<path d="M841 1190 c-66 -10 -121 -33 -184 -78 -31 -22 -45 -38 -39 -44 6 -6
28 3 58 25 76 54 136 72 234 72 71 -1 95 -5 145 -28 32 -15 74 -39 93 -54 22
-16 37 -22 43 -16 20 20 -124 106 -197 118 -75 12 -99 12 -153 5z"/>
<path d="M814 1021 c-45 -20 -59 -35 -49 -51 4 -6 18 -1 35 12 55 40 155 40
210 -1 28 -20 49 -14 34 10 -13 22 -90 49 -139 49 -28 0 -69 -9 -91 -19z"/>
<path d="M1184 871 c-38 -16 -54 -51 -54 -114 0 -48 4 -62 25 -82 21 -22 33
-25 92 -25 96 1 123 27 123 119 0 75 -28 104 -106 108 -32 1 -69 -1 -80 -6z
m127 -41 c30 -16 27 -113 -3 -134 -60 -42 -148 -2 -148 66 0 56 23 78 81 78
28 0 59 -5 70 -10z"/>
<path d="M138 841 c-31 -28 -33 -33 -36 -110 -4 -77 -3 -81 17 -81 17 0 21 6
21 30 l0 30 75 0 75 0 0 -30 c0 -23 4 -30 20 -30 19 0 20 7 20 110 l0 110 -80
0 c-74 0 -82 -2 -112 -29z m152 -51 l0 -50 -75 0 c-74 0 -75 0 -75 25 0 14 11
37 25 50 19 20 34 25 75 25 l50 0 0 -50z"/>
<path d="M382 763 l3 -108 97 -3 c93 -3 98 -2 113 22 17 26 12 67 -10 86 -11
9 -11 17 -3 36 8 18 8 31 0 49 -11 24 -15 25 -107 25 l-96 0 3 -107z m168 59
c0 -29 -21 -42 -67 -42 -36 0 -43 -3 -43 -20 0 -18 7 -20 59 -20 57 0 71 -8
71 -41 0 -5 -34 -9 -75 -9 l-75 0 0 75 0 75 65 0 c56 0 65 -3 65 -18z"/>
<path d="M650 770 c0 -119 1 -120 119 -120 74 0 81 2 81 20 0 17 -8 19 -82 22
l-83 3 -3 73 -3 72 86 0 c69 0 85 3 85 15 0 12 -18 15 -100 15 l-100 0 0 -100z"/>
<path d="M900 760 l0 -110 100 0 c93 0 100 1 100 20 0 18 -7 20 -85 20 l-85 0
0 90 c0 73 -3 90 -15 90 -12 0 -15 -19 -15 -110z"/>
<path d="M1426 854 c-17 -16 -21 -61 -8 -80 15 -22 52 -34 111 -34 59 0 74 -9
63 -37 -3 -9 -31 -13 -93 -13 -82 0 -89 -1 -89 -20 0 -18 7 -20 88 -20 105 0
132 13 132 64 0 49 -24 64 -105 68 -67 3 -70 4 -70 28 0 24 2 25 78 28 59 2
77 6 77 17 0 22 -162 21 -184 -1z"/>
<path d="M1670 760 c0 -103 1 -110 20 -110 17 0 20 7 20 45 l0 45 75 0 75 0 0
-45 c0 -38 3 -45 20 -45 19 0 20 7 20 110 0 103 -1 110 -20 110 -17 0 -20 -7
-20 -45 l0 -45 -75 0 -75 0 0 45 c0 38 -3 45 -20 45 -19 0 -20 -7 -20 -110z"/>
<path d="M702 763 c3 -15 16 -19 66 -21 57 -3 62 -1 62 18 0 18 -6 20 -66 20
-57 0 -65 -2 -62 -17z"/>
</g>
</svg>
